<?xml version="1.0" standalone="no"?>
<!DOCTYPE svg PUBLIC "-//W3C//DTD SVG 20010904//EN"
 "http://www.w3.org/TR/2001/REC-SVG-20010904/DTD/svg10.dtd">
<svg version="1.0" xmlns="http://www.w3.org/2000/svg"
 width="900.000000pt" height="300.000000pt" viewBox="0 0 900.000000 300.000000"
 preserveAspectRatio="xMidYMid meet">
<g transform="translate(0.000000,300.000000) scale(0.100000,-0.100000)"
fill="#000000" stroke="none">
<path d="M1925 2872 c-10 -7 -31 -87 -59 -222 -8 -41 -20 -97 -26 -125 -6 -27
-15 -74 -20 -103 -5 -29 -13 -74 -19 -100 -39 -182 -60 -296 -72 -387 -13
-101 -25 -119 -86 -134 -26 -7 -88 -25 -138 -40 -49 -16 -117 -36 -150 -46
-33 -10 -74 -24 -92 -32 -17 -7 -38 -13 -47 -13 -14 0 -66 -20 -109 -42 -38
-19 -46 9 -23 82 8 25 21 79 30 120 8 41 20 98 26 125 21 97 40 191 50 254 6
35 13 68 17 74 6 11 24 100 47 242 17 104 9 160 -25 188 -52 42 -123 1 -249
-149 -58 -68 -180 -270 -180 -298 0 -6 -7 -24 -16 -41 -11 -20 -17 -58 -18
-115 -1 -71 2 -89 19 -111 29 -39 71 -59 121 -59 45 0 45 0 42 33 -3 28 -7 32
-37 35 -19 2 -45 10 -57 19 -21 13 -24 23 -24 74 0 32 7 75 16 96 51 120 45
108 90 183 74 125 219 287 247 277 16 -6 12 -125 -7 -197 -8 -30 -21 -89 -29
-130 -9 -41 -21 -97 -27 -125 -6 -27 -13 -63 -16 -80 -3 -16 -11 -59 -19 -95
-7 -36 -20 -99 -29 -140 -8 -41 -22 -106 -31 -145 -8 -38 -15 -85 -15 -102 0
-26 -6 -36 -30 -48 -16 -8 -38 -15 -49 -15 -11 0 -35 -6 -53 -14 -18 -8 -62
-23 -98 -35 -84 -26 -128 -41 -167 -58 -17 -7 -36 -13 -42 -13 -6 0 -25 -6
-43 -14 -18 -8 -71 -29 -118 -46 -214 -80 -289 -142 -232 -193 37 -34 82 -12
82 41 0 13 16 25 58 41 31 12 66 27 76 33 11 6 31 14 45 19 14 4 71 24 126 44
55 20 109 39 120 42 11 3 34 11 52 19 17 8 40 14 50 14 10 0 23 4 29 9 5 5 25
14 44 19 19 5 52 17 73 26 35 15 38 15 44 0 3 -9 0 -37 -6 -63 -7 -25 -16 -72
-22 -104 -5 -32 -13 -67 -19 -77 -5 -10 -10 -31 -10 -45 0 -15 -7 -59 -15 -99
-38 -175 -65 -315 -76 -394 -4 -35 -11 -68 -15 -73 -3 -6 -10 -45 -15 -88 -5
-42 -14 -97 -20 -122 -7 -25 -9 -57 -5 -72 8 -35 43 -45 68 -20 17 17 20 37
22 129 2 60 8 122 15 137 6 16 11 42 11 59 0 16 7 60 15 97 22 101 35 170 45
231 4 30 13 75 19 100 6 25 18 81 26 125 9 44 22 109 30 145 8 36 15 86 15
112 0 42 3 49 28 62 15 7 43 17 62 21 36 7 110 29 170 50 19 7 60 20 90 29 63
19 256 81 284 92 21 8 21 0 -9 -136 -8 -41 -20 -106 -26 -144 -5 -38 -14 -77
-19 -87 -6 -10 -10 -32 -10 -50 0 -18 -6 -58 -14 -88 -15 -59 -32 -145 -47
-246 -5 -32 -14 -64 -19 -69 -23 -23 2 -76 35 -76 20 0 45 52 45 91 0 18 6 58
14 88 8 31 22 101 31 156 9 55 21 120 27 145 5 25 13 69 18 98 5 29 13 74 19
100 5 26 17 89 25 141 16 96 22 107 66 117 27 6 112 30 175 50 22 7 68 21 103
30 64 18 89 41 78 70 -8 20 -58 18 -114 -5 -26 -10 -74 -27 -107 -36 -33 -10
-74 -24 -90 -32 -34 -17 -81 -14 -78 4 2 7 10 43 18 80 9 37 20 92 25 121 4
29 13 74 19 100 17 75 31 152 42 221 6 36 15 73 20 82 5 10 9 30 9 45 0 15 6
53 14 83 18 69 34 139 48 209 10 44 9 55 -3 63 -17 11 -31 11 -44 1z"/>
<path d="M7645 2781 c-97 -60 -241 -290 -374 -596 -12 -27 -28 -63 -35 -80 -8
-16 -21 -50 -31 -75 -9 -25 -23 -59 -30 -75 -7 -17 -16 -45 -19 -62 -4 -18
-12 -35 -17 -38 -5 -4 -9 -15 -9 -25 0 -11 -6 -34 -14 -52 -23 -56 -38 -101
-45 -137 -3 -19 -12 -36 -19 -39 -17 -5 -16 74 4 173 11 58 16 146 17 315 2
226 1 237 -21 277 -42 79 -90 84 -162 17 -69 -64 -130 -161 -223 -349 -93
-190 -108 -223 -167 -370 -31 -79 -43 -106 -72 -175 -9 -19 -19 -50 -22 -67
-4 -18 -12 -35 -17 -38 -5 -4 -9 -13 -9 -22 0 -8 -6 -29 -13 -46 -18 -43 -37
-95 -47 -132 -5 -16 -13 -43 -19 -60 -36 -98 -64 -185 -71 -218 -4 -21 -13
-44 -19 -50 -6 -6 -11 -22 -11 -36 0 -15 -4 -33 -9 -40 -16 -25 -24 30 -10 64
7 17 16 53 20 80 8 51 20 108 44 205 8 30 21 89 30 130 9 41 23 100 30 130 8
30 21 89 30 130 9 41 23 100 30 130 8 30 21 87 29 125 9 39 20 90 26 115 7 25
15 66 20 93 5 26 13 62 19 80 11 37 28 111 41 180 5 26 13 62 18 80 84 280 39
450 -108 406 -22 -7 -45 -18 -51 -26 -6 -7 -17 -13 -23 -13 -16 0 -204 -195
-241 -250 -16 -25 -33 -46 -37 -48 -5 -2 -8 -8 -8 -14 0 -5 -20 -42 -45 -83
-24 -40 -47 -85 -51 -99 -3 -15 -10 -29 -15 -32 -5 -3 -9 -13 -9 -22 0 -9 -6
-29 -14 -43 -7 -14 -19 -63 -26 -108 -26 -155 19 -258 139 -323 42 -23 66 -29
129 -31 l77 -2 0 30 c0 30 -1 30 -65 36 -69 7 -130 29 -160 57 -44 43 -53 71
-53 161 1 96 17 156 77 285 109 231 361 496 434 457 26 -14 34 -63 22 -133 -6
-32 -14 -84 -20 -115 -5 -32 -14 -69 -19 -83 -4 -14 -16 -61 -25 -105 -10 -44
-24 -105 -31 -135 -21 -86 -35 -151 -46 -209 -5 -29 -14 -62 -19 -72 -6 -10
-10 -30 -10 -45 0 -15 -6 -53 -14 -83 -43 -174 -63 -263 -76 -344 -6 -33 -13
-64 -16 -69 -6 -10 -25 -97 -40 -183 -6 -38 -28 -139 -48 -230 -9 -38 -16 -82
-16 -96 0 -15 -7 -46 -15 -69 -8 -23 -15 -57 -15 -75 0 -18 -7 -52 -15 -75 -8
-23 -15 -59 -15 -79 0 -20 -5 -53 -11 -75 -11 -41 3 -96 25 -96 33 1 49 33 91
185 9 33 21 74 27 90 5 17 13 46 17 65 4 19 13 45 19 57 7 12 12 32 12 45 0
13 7 33 15 44 8 10 15 27 15 37 0 11 6 33 13 50 18 43 37 95 47 132 11 40 30
93 45 130 7 17 16 39 18 50 7 24 34 102 46 130 5 11 15 38 24 60 23 60 57 147
67 170 4 11 31 76 60 145 82 196 152 344 205 435 19 33 38 67 41 75 4 8 15 25
23 36 9 12 23 32 31 44 30 46 72 90 86 90 7 0 20 -13 29 -30 21 -40 21 -394 0
-534 -8 -55 -15 -122 -15 -150 0 -28 -7 -82 -15 -121 -8 -38 -15 -83 -15 -100
0 -16 -6 -61 -14 -100 -8 -38 -20 -95 -26 -125 -6 -30 -13 -64 -16 -75 -3 -13
2 -24 16 -33 28 -17 58 0 65 36 3 15 12 48 20 73 8 26 15 56 15 68 0 11 6 35
14 53 7 18 21 60 31 93 9 33 23 75 31 93 8 18 14 41 14 50 0 10 6 26 14 37 7
11 16 31 19 45 7 34 35 111 47 132 6 10 10 23 10 29 0 6 6 25 14 42 7 18 21
52 30 77 10 25 24 58 32 73 8 16 14 33 14 38 0 5 14 39 31 76 16 38 37 84 46
103 8 19 19 42 24 50 5 8 12 22 15 30 9 25 73 151 105 210 41 74 134 196 163
215 54 36 73 -11 63 -162 -4 -52 -11 -120 -16 -151 -11 -59 -28 -189 -40 -302
-4 -36 -13 -87 -19 -115 -12 -52 -28 -149 -42 -246 -4 -31 -12 -79 -18 -105
-18 -77 -34 -164 -42 -225 -4 -31 -12 -79 -18 -105 -6 -27 -18 -94 -27 -149
-9 -55 -23 -136 -30 -180 -35 -195 -41 -323 -20 -423 5 -22 2 -48 -10 -79 -26
-68 -26 -283 -1 -333 34 -65 65 -90 113 -90 57 0 107 32 162 105 38 50 131
221 131 240 0 4 6 21 14 38 8 18 22 57 31 87 10 30 22 66 27 80 12 28 34 112
49 179 5 25 13 59 18 75 9 31 25 106 55 261 9 44 16 97 16 116 0 50 21 73 152
170 62 45 128 94 146 108 49 37 86 61 96 61 10 0 1 -55 -18 -120 -21 -67 -46
-182 -46 -206 0 -12 -6 -44 -14 -70 -16 -54 -33 -145 -47 -243 -5 -35 -13 -77
-18 -95 -14 -45 -31 -200 -24 -224 12 -47 56 -36 83 21 18 37 18 41 3 67 -15
26 -15 33 0 97 10 37 17 81 17 96 0 16 7 56 15 90 8 34 21 96 29 137 8 41 20
98 26 125 6 28 13 64 16 80 3 17 11 59 19 95 7 36 21 101 30 145 10 44 23 103
30 130 32 126 64 262 75 320 13 70 45 147 90 220 26 42 114 222 132 270 35 92
41 113 48 165 10 70 3 108 -21 115 -34 11 -58 -6 -92 -63 -57 -99 -83 -172
-143 -389 -8 -32 -22 -83 -30 -113 -28 -101 -42 -155 -54 -205 -35 -144 -42
-174 -50 -220 -10 -59 -27 -116 -38 -130 -9 -13 -69 -55 -78 -55 -3 0 -23 -13
-44 -30 -21 -16 -41 -30 -45 -30 -9 0 -158 -114 -174 -134 -7 -9 -20 -16 -27
-16 -18 0 -18 41 0 122 8 35 17 100 21 145 6 72 5 84 -9 89 -22 8 -47 -15 -74
-68 -13 -24 -43 -70 -67 -103 -25 -33 -50 -70 -57 -82 -6 -13 -20 -23 -31 -23
-17 0 -19 5 -13 48 15 100 71 230 122 277 39 36 65 40 106 16 30 -18 37 -19
53 -7 17 12 18 17 6 39 -15 28 -70 57 -107 57 -51 0 -129 -69 -171 -151 -45
-88 -62 -149 -69 -240 -6 -79 -5 -88 15 -108 42 -42 75 -21 167 104 27 37 52
61 57 56 4 -4 1 -35 -7 -69 -9 -33 -16 -76 -16 -95 0 -59 -14 -81 -132 -199
-62 -62 -126 -128 -142 -147 -49 -58 -144 -205 -189 -293 -60 -116 -58 -113
-68 -97 -4 8 -1 41 7 74 7 33 14 73 14 89 0 15 6 58 14 95 8 36 20 98 26 136
6 39 18 106 25 150 8 44 19 113 25 154 6 41 13 78 16 83 5 7 25 121 44 248 4
30 13 75 19 100 11 46 30 156 37 220 3 19 11 76 19 125 32 204 39 267 43 413
3 142 2 155 -18 187 -36 58 -73 69 -125 36z m1186 -164 c-7 -17 -15 -43 -18
-57 -3 -14 -12 -34 -19 -45 -8 -11 -14 -27 -14 -36 0 -9 -6 -22 -14 -29 -8 -6
-16 -21 -18 -32 -2 -12 -9 -23 -15 -26 -18 -5 -16 38 2 62 8 11 15 28 15 38 0
9 8 34 17 55 51 117 56 124 66 114 8 -8 8 -20 -2 -44z m-831 -1428 c0 -11 -5
-29 -11 -40 -6 -11 -14 -41 -18 -67 -5 -26 -14 -69 -21 -97 -68 -280 -78 -317
-121 -445 -33 -99 -45 -130 -74 -190 -75 -155 -148 -243 -195 -238 -18 2 -31
15 -47 48 -40 78 -27 255 28 405 25 67 69 164 90 195 9 14 38 59 65 100 26 41
51 77 54 80 3 3 21 25 40 50 28 37 97 119 174 206 17 20 36 16 36 -7z"/>
<path d="M2833 1829 c-23 -10 -55 -33 -72 -50 -34 -34 -71 -109 -71 -145 0
-12 -4 -25 -9 -28 -5 -4 -19 -26 -31 -51 -28 -58 -109 -168 -143 -195 -40 -32
-68 -23 -94 30 -13 25 -23 55 -23 67 0 20 -16 133 -26 191 -9 48 -40 24 -135
-103 -71 -94 -96 -122 -105 -114 -21 17 -8 66 48 189 23 50 98 130 121 130 9
0 29 -11 45 -25 39 -33 82 -34 82 -2 0 37 -78 97 -125 97 -44 0 -120 -57 -151
-113 -79 -142 -114 -291 -80 -342 27 -41 65 -33 122 25 27 28 58 66 70 86 12
19 31 42 42 50 25 17 32 4 32 -66 0 -49 25 -116 59 -160 29 -37 102 -35 154 4
40 30 98 105 133 169 11 21 24 39 29 39 4 0 18 -22 29 -49 19 -43 60 -117 108
-192 9 -14 25 -42 36 -62 l20 -35 -28 -40 c-89 -130 -118 -174 -138 -219 -13
-27 -27 -58 -33 -67 -13 -26 -10 -100 5 -120 9 -12 27 -18 53 -18 35 0 47 7
89 49 28 27 60 71 73 98 12 26 27 57 34 68 6 11 11 68 12 132 1 111 5 128 46
163 3 3 41 48 85 100 44 52 89 106 101 120 12 14 40 49 62 78 44 55 61 64 61
32 0 -18 21 -74 41 -110 4 -8 18 -33 30 -55 11 -22 41 -69 64 -105 70 -104 71
-96 -32 -236 -45 -61 -106 -195 -111 -244 -6 -66 9 -90 57 -90 71 0 156 95
202 226 17 47 20 75 16 141 -4 73 -2 86 17 111 20 27 102 126 138 166 10 11
37 45 60 78 55 75 72 76 64 6 -5 -43 -2 -57 13 -75 32 -38 60 -29 126 41 34
36 70 81 80 100 27 50 45 47 45 -7 0 -51 24 -127 56 -179 25 -40 63 -54 113
-43 30 6 90 58 128 110 20 28 22 29 29 10 31 -87 85 -68 186 68 27 37 56 67
63 67 9 0 16 -22 21 -67 12 -119 61 -193 127 -193 39 0 97 40 132 91 15 21 31
36 36 33 14 -8 10 -56 -6 -84 -29 -51 -11 -106 32 -98 11 2 33 33 55 75 20 40
59 111 87 159 28 47 51 89 51 93 0 10 41 43 47 37 3 -2 6 -45 7 -95 1 -80 4
-93 26 -116 31 -33 53 -32 84 6 23 27 81 140 107 207 13 33 26 27 33 -15 17
-98 54 -143 118 -143 58 0 117 33 204 116 65 61 75 76 72 100 -5 50 -36 42
-96 -25 -68 -78 -130 -121 -174 -121 -29 0 -37 5 -51 35 -11 23 -17 61 -17
108 0 75 -9 97 -41 97 -31 0 -73 -67 -159 -253 -12 -26 -27 -46 -33 -44 -12 4
-30 84 -22 97 2 4 5 42 6 85 1 64 -1 81 -16 91 -9 7 -24 10 -32 7 -20 -8 -146
-202 -182 -280 -6 -13 -15 -23 -21 -23 -21 0 2 102 38 167 7 12 12 28 12 37 0
14 7 29 51 118 22 43 24 71 6 86 -18 15 -57 3 -57 -17 0 -9 -7 -29 -15 -45 -8
-15 -15 -33 -15 -38 0 -31 -89 -204 -139 -273 -57 -77 -89 -104 -123 -105 -41
0 -60 49 -82 215 -15 112 -16 115 -36 115 -22 0 -17 5 -116 -130 -81 -110 -92
-122 -107 -113 -12 7 -1 87 17 121 7 15 24 49 36 76 26 55 91 126 117 126 9 0
31 -11 49 -25 38 -29 72 -32 81 -9 8 22 -6 44 -53 76 -63 44 -117 34 -180 -34
-35 -37 -54 -68 -114 -183 -23 -44 -48 -87 -56 -96 -8 -8 -14 -20 -14 -25 0
-5 -8 -17 -17 -26 -10 -9 -33 -32 -52 -52 -35 -37 -70 -46 -90 -23 -23 28 -51
141 -51 206 0 69 -17 111 -45 111 -8 0 -30 -21 -49 -47 -151 -207 -176 -232
-176 -175 0 71 70 216 134 275 37 33 50 34 92 2 18 -14 42 -25 54 -25 25 0 37
26 23 49 -18 29 -87 70 -119 71 -40 0 -105 -47 -141 -102 -16 -24 -38 -52 -49
-63 -33 -31 -255 -293 -304 -358 -50 -67 -61 -68 -84 -7 -4 8 -15 29 -26 45
-21 33 -28 46 -83 147 -31 57 -37 77 -37 129 0 55 3 66 34 103 44 54 94 73
149 55 36 -12 41 -11 53 6 21 28 17 43 -16 60 -40 20 -98 19 -146 -4 -51 -25
-78 -52 -120 -116 -18 -29 -64 -88 -101 -131 -38 -44 -79 -92 -93 -108 -14
-16 -32 -36 -40 -45 -9 -9 -33 -38 -55 -66 -22 -27 -48 -59 -57 -69 -10 -11
-20 -28 -24 -38 -9 -31 -34 -20 -55 25 -11 23 -29 56 -39 72 -35 54 -48 79
-85 154 -30 62 -35 81 -30 113 13 75 40 112 108 143 34 16 43 16 79 4 37 -12
42 -11 54 6 21 28 17 43 -16 60 -39 20 -95 18 -147 -6z m695 -806 c-9 -90 -99
-243 -142 -243 -34 0 -14 52 86 223 47 80 62 86 56 20z m-625 -14 c-3 -53 -26
-110 -67 -164 -99 -129 -115 -69 -24 85 11 19 32 57 45 83 31 58 49 56 46 -4z"/>
</g>
</svg>
